HIERARCHY
ROOT Bip001_Pelvis
{
  OFFSET -1.09727 91.6061 -4.11886
  CHANNELS 6 Xposition Yposition Zposition Zrotation Xrotation Yrotation
  JOINT Bip001_Spine
  {
    OFFSET 1.44608e-005 10.4157 -0.0118244
    CHANNELS 3 Zrotation Xrotation Yrotation
    JOINT Bip001_L_Thigh
    {
      OFFSET 11.2582 -10.4157 0.0118432
      CHANNELS 3 Zrotation Xrotation Yrotation
      JOINT Bip001_L_Calf
      {
        OFFSET -0.720717 -44.8687 0.366937
        CHANNELS 3 Zrotation Xrotation Yrotation
        JOINT Bip001_L_Foot
        {
          OFFSET -0.664439 -41.3745 -3.62995
          CHANNELS 3 Zrotation Xrotation Yrotation
          JOINT Bip001_L_Toe0
          {
            OFFSET 0.0541047 -10.4146 13.4033
            CHANNELS 3 Zrotation Xrotation Yrotation
            End Site
            {
              OFFSET -1.04503e-005 0 7.70137
            }
          }
        }
      }
    }
    JOINT Bip001_R_Thigh
    {
      OFFSET -11.2582 -10.4156 0.0118122
      CHANNELS 3 Zrotation Xrotation Yrotation
      JOINT Bip001_R_Calf
      {
        OFFSET 0.72059 -44.8687 0.36676
        CHANNELS 3 Zrotation Xrotation Yrotation
        JOINT Bip001_R_Foot
        {
          OFFSET 0.664321 -41.3745 -3.62979
          CHANNELS 3 Zrotation Xrotation Yrotation
          JOINT Bip001_R_Toe0
          {
            OFFSET -0.05417 -10.4146 13.4033
            CHANNELS 3 Zrotation Xrotation Yrotation
            End Site
            {
              OFFSET -1.04873e-005 0 7.70137
            }
          }
        }
      }
    }
    JOINT Bip001_Spine1
    {
      OFFSET 1.90638e-005 14.8539 1.10727
      CHANNELS 3 Zrotation Xrotation Yrotation
      JOINT Bip001_Spine2
      {
        OFFSET 2.28934e-005 14.7848 -1.7233
        CHANNELS 3 Zrotation Xrotation Yrotation
        JOINT Bip001_Neck
        {
          OFFSET 2.24514e-005 15.6905 -0.498826
          CHANNELS 3 Zrotation Xrotation Yrotation
          JOINT Bip001_L_Clavicle
          {
            OFFSET 6.17691 -0.000591152 0.00852867
            CHANNELS 3 Zrotation Xrotation Yrotation
            JOINT Bip001_L_UpperArm
            {
              OFFSET 11.773 -0.0611878 0.00197697
              CHANNELS 3 Zrotation Xrotation Yrotation
              JOINT Bip001_L_Forearm
              {
                OFFSET 26.4515 0.0817566 -2.1958
                CHANNELS 3 Zrotation Xrotation Yrotation
                JOINT Bip001_L_Hand
                {
                  OFFSET 32.8677 0.156744 1.67112
                  CHANNELS 3 Zrotation Xrotation Yrotation
                  JOINT Bip001_L_Finger0
                  {
                    OFFSET 6.16268 -2.25225 6.01675
                    CHANNELS 3 Zrotation Xrotation Yrotation
                    End Site
                    {
                      OFFSET 4.30499 -1.46662 0.618149
                    }
                  }
                  JOINT Bip001_L_Finger1
                  {
                    OFFSET 11.2957 -0.718373 -0.201963
                    CHANNELS 3 Zrotation Xrotation Yrotation
                    End Site
                    {
                      OFFSET 6.31952 -0.405162 -0.0802303
                    }
                  }
                }
              }
            }
          }
          JOINT Bip001_R_Clavicle
          {
            OFFSET -6.17691 -0.000574027 0.00851165
            CHANNELS 3 Zrotation Xrotation Yrotation
            JOINT Bip001_R_UpperArm
            {
              OFFSET -11.773 -0.0611516 0.00194365
              CHANNELS 3 Zrotation Xrotation Yrotation
              JOINT Bip001_R_Forearm
              {
                OFFSET -26.4514 0.0822336 -2.19736
                CHANNELS 3 Zrotation Xrotation Yrotation
                JOINT Bip001_R_Hand
                {
                  OFFSET -32.8677 0.156816 1.67144
                  CHANNELS 3 Zrotation Xrotation Yrotation
                  JOINT Bip001_R_Finger0
                  {
                    OFFSET -6.1627 -2.25224 6.01672
                    CHANNELS 3 Zrotation Xrotation Yrotation
                    End Site
                    {
                      OFFSET -4.30499 -1.46661 0.618135
                    }
                  }
                  JOINT Bip001_R_Finger1
                  {
                    OFFSET -11.2958 -0.718343 -0.201994
                    CHANNELS 3 Zrotation Xrotation Yrotation
                    End Site
                    {
                      OFFSET -6.31952 -0.405146 -0.0802477
                    }
                  }
                }
              }
            }
          }
          JOINT Bip001_Head
          {
            OFFSET 1.11782e-005 11.4912 2.09908
            CHANNELS 3 Zrotation Xrotation Yrotation
            End Site
            {
              OFFSET 2.95144e-005 21.2823 -2.83069e-005
            }
          }
        }
      }
    }
  }
}
MOTION
Frames:	13
Frame Time:	0.0333333
6.96585 83.4052 -9.22346 -9.27468 11.301 -48.412 -0.864252 1.74969 -3.98236 12.1482 -32.5758 2.88144 1.69833 62.4353 2.80112 -7.48807 -16.4545 19.4365 -3.16389e-007 4.50588e-008 -1.88197e-008 17.3123 -32.1227 0.474164 0.747216 54.2971 5.93334 1.70122 -27.4737 -17.7901 -4.26654e-007 -4.19318e-009 -7.63061e-009 -1.60528 3.55528 -7.95342 -1.60528 3.55527 -7.95342 -2.4358 2.59111 -22.816 -22.2726 -4.72751 3.11458 -42.9948 26.6182 -3.48736 -4.25052 2.08757 -48.5495 23.495 12.305 -7.58523 -3.97569e-016 1.59028e-014 -1.98785e-016 -1.59028e-015 1.27222e-014 4.37326e-015 20.3893 10.3804 34.7593 48.4495 28.0378 -10.1571 1.41581 -1.94214 42.5398 -10.3463 2.88822 -7.58244 6.36111e-015 -3.18055e-015 -0 8.74652e-015 -4.77083e-015 3.18055e-015 18.898 1.77831 -30.9471 
7.72044 83.7114 -8.59971 -9.75981 11.1654 -50.6447 -0.839121 1.67998 -3.98331 10.4622 -31.5892 0.765306 1.75363 61.7915 3.37561 -7.77819 -15.6748 22.4385 -3.16389e-007 4.50588e-008 -1.88197e-008 16.1299 -30.1056 -0.408637 0.281181 53.4081 3.17174 2.30665 -27.296 -16.1486 -4.26654e-007 -4.19318e-009 -7.63062e-009 -1.56226 3.41451 -7.97606 -1.56233 3.41452 -7.97507 -2.52222 2.72074 -22.6084 -22.3993 -4.77384 2.86981 -43.0852 25.915 -3.2087 -4.22508 2.05753 -48.1578 21.5824 12.8431 -7.29353 2.38542e-015 -3.18055e-015 -7.55382e-015 1.59028e-015 -3.18056e-015 -8.34896e-015 20.5559 10.2508 34.6532 48.5052 28.8232 -9.74755 1.20214 -1.98601 40.9401 -9.68202 2.62924 -7.65026 -0 -3.18055e-015 -0 -1.59028e-015 -6.36111e-015 -0 19.1565 2.53388 -31.0078 
8.75482 84.0315 -8.10832 -9.20938 11.2583 -53.7115 -0.792262 1.62698 -3.98784 8.77841 -31.3552 -0.710164 2.71707 61.0528 8.27462 -10.5655 -13.6409 19.7311 -3.16389e-007 4.50588e-008 -1.88197e-008 14.3777 -29.1501 -1.1856 0.300051 52.3383 3.20741 6.08408 -29.4519 -12.7234 -4.26654e-007 -4.19318e-009 -7.6306e-009 -1.47013 3.305 -7.95874 -1.47019 3.30501 -7.95785 -2.5478 2.67532 -22.4617 -22.4993 -4.65312 2.63807 -43.1399 25.4152 -3.07481 -4.19563 2.02316 -47.7078 19.6601 11.7554 -6.48255 1.59028e-015 3.18055e-015 -0 -1.59028e-015 0 -2.38542e-015 20.6687 10.3058 34.5262 48.4244 29.7424 -9.52499 1.03788 -2.01452 39.7234 -9.50281 1.89578 -7.9879 7.95139e-016 0 3.18055e-015 7.15625e-015 0 -0 19.1694 3.50065 -31.123 
9.68621 84.2584 -7.43383 -8.38614 11.0574 -56.6086 -0.72363 1.61559 -4.00872 7.94298 -31.3386 -0.362734 3.75011 61.3889 13.449 -13.6958 -11.0685 13.3046 -3.16389e-007 4.50588e-008 -1.88197e-008 12.5912 -28.6108 -1.64763 -0.104451 51.9753 0.690002 7.4216 -29.788 -10.4487 -4.26654e-007 -4.19318e-009 -7.63061e-009 -1.33328 3.27527 -8.00107 -1.33329 3.27526 -8.00105 -2.61778 2.5713 -22.2233 -22.5652 -4.44203 2.3944 -43.1255 25.5505 -2.87095 -4.18111 2.01001 -47.507 18.8022 11.2694 -6.10875 -1.59028e-015 -6.36111e-015 -4.77083e-015 -3.18055e-015 -6.36111e-015 -4.77083e-015 20.7809 10.3794 34.318 48.4122 30.6481 -9.42923 0.916782 -2.0328 38.8328 -9.52392 1.02514 -8.66777 4.77083e-015 -3.18055e-015 -3.18055e-015 1.59028e-015 -3.18056e-015 -3.18055e-015 18.9851 4.21241 -30.9138 
10.4386 84.5544 -6.79957 -7.74751 10.9736 -59.4003 -0.706482 1.63439 -4.0394 8.04901 -31.5908 -0.364357 4.0895 63.3522 13.6573 -16.6991 -8.16476 9.79891 -3.16389e-007 4.50588e-008 -1.88197e-008 10.9329 -27.9738 -2.59705 -0.203785 51.2312 -0.00352295 8.54605 -30.4411 -8.79187 -4.26654e-007 -4.19318e-009 -7.6306e-009 -1.29553 3.3143 -8.06333 -1.29548 3.31433 -8.06334 -2.60488 2.56222 -21.9608 -22.5623 -4.33141 2.15593 -43.0529 26.4195 -2.84682 -4.18359 2.01338 -47.5702 18.8843 11.8391 -6.26358 3.18055e-015 0 -7.95139e-015 3.18055e-015 0 -4.77083e-015 20.9069 10.3449 34.0551 48.3638 31.6503 -9.23019 0.830379 -2.04569 38.1947 -10.3194 -0.383788 -9.38891 -3.53112e-031 3.18055e-015 6.36111e-015 4.77083e-015 3.18056e-015 -0 19.5169 5.13213 -30.9432 
11.0866 84.8313 -6.18057 -7.29277 10.8536 -62.116 -0.697426 1.68383 -4.05935 7.33018 -31.5729 -3.26199 3.5712 65.8462 9.38398 -19.4733 -7.81247 10.0487 -3.16389e-007 4.50588e-008 -1.88197e-008 9.76014 -27.4614 -2.85521 -0.350653 50.5266 -1.03269 9.30806 -30.2483 -6.95205 -4.26654e-007 -4.19319e-009 -7.63061e-009 -1.2742 3.41274 -8.09956 -1.27422 3.41271 -8.09956 -2.44316 2.21555 -21.8086 -22.812 -4.0344 2.14707 -42.5416 27.6022 -3.27313 -4.18852 2.01599 -47.6072 19.0776 12.2069 -6.24224 -4.77083e-015 0 -4.77083e-015 -1.59028e-015 6.36111e-015 -1.59028e-015 20.8067 10.5901 33.7435 48.4366 32.1527 -9.11546 0.786522 -2.0523 37.872 -11.2704 -1.65046 -10.1579 -1.76556e-031 3.18055e-015 3.18055e-015 -1.76556e-031 3.18056e-015 3.18055e-015 19.5531 5.93211 -30.7227 
11.7923 84.944 -5.71788 -7.04406 11.0614 -64.7818 -0.648486 1.74164 -4.03245 7.96693 -30.8518 -4.92484 2.87825 67.5571 5.7123 -20.148 -9.78156 9.95495 -3.16389e-007 4.50588e-008 -1.88197e-008 8.96997 -27.1412 -3.10128 -0.0823121 49.8863 0.633597 8.24096 -30.639 -8.36742 -4.26654e-007 -4.19318e-009 -7.63061e-009 -1.17343 3.52443 -8.05038 -1.17343 3.52444 -8.05032 -2.3999 2.09437 -21.667 -22.9541 -3.90415 2.06535 -41.2914 29.0761 -4.06157 -4.18369 2.01075 -47.5363 18.8757 11.4292 -6.0413 4.77083e-015 0 -0 3.18055e-015 3.18056e-015 1.59028e-015 20.944 10.7062 33.4549 48.7207 32.0053 -9.03041 0.728152 -2.06344 37.427 -11.9298 -2.78523 -10.7384 1.59028e-015 -3.18055e-015 6.36111e-015 -1.59028e-015 -3.18056e-015 3.18055e-015 19.4 5.98495 -30.3684 
12.6497 85.0951 -5.16186 -6.8529 10.9617 -67.3653 -0.61902 1.80912 -3.96379 9.27566 -28.8526 -4.71169 3.65695 67.8698 8.61739 -18.4764 -11.359 9.71301 -3.16389e-007 4.50588e-008 -1.88197e-008 8.16674 -26.8916 -2.66075 -0.192484 49.2824 -0.188143 8.84707 -30.3037 -7.56235 -4.26654e-007 -4.19318e-009 -7.63061e-009 -1.11192 3.65649 -7.9128 -1.11189 3.65652 -7.91288 -2.29336 2.00025 -21.549 -23.1444 -3.84043 2.0299 -40.3795 29.8528 -4.95111 -4.15605 1.97913 -47.118 17.9122 12.266 -5.54142 -7.06225e-031 6.36111e-015 6.36111e-015 3.18055e-015 6.36111e-015 4.77083e-015 21.0563 10.8237 33.2771 49.009 31.4348 -9.26278 0.7088 -2.06682 37.2894 -12.5134 -3.64523 -10.9793 -3.18055e-015 6.36111e-015 3.18055e-015 0 6.36111e-015 -0 19.2821 5.80847 -30.2488 
13.7091 85.3861 -4.63005 -6.4829 10.5987 -69.9644 -0.672388 1.86415 -3.8947 11.6615 -25.8612 -2.82964 3.67694 65.1667 11.3023 -14.7783 -9.10003 10.8679 -3.16389e-007 4.50588e-008 -1.88197e-008 7.24522 -26.8961 -2.14093 -0.451437 48.4398 -2.13162 9.15467 -28.5617 -6.54478 -4.26654e-007 -4.19318e-009 -7.63061e-009 -1.21728 3.7694 -7.77334 -1.21729 3.76939 -7.77338 -2.46667 1.74932 -21.3996 -23.1111 -3.53675 2.07821 -39.8091 30.0716 -5.65493 -4.13118 1.9511 -46.7452 17.2184 12.9988 -5.49704 -3.18055e-015 3.18055e-015 3.18055e-015 -6.36111e-015 0 -0 21.2962 11.117 33.0282 49.6325 30.8873 -9.80574 0.72891 -2.06238 37.4483 -13.4106 -4.42659 -11.1431 -3.18055e-015 3.18055e-015 -6.36111e-015 -6.36111e-015 0 -6.36111e-015 19.1095 5.87523 -30.1865 
14.8365 85.5555 -4.14946 -6.20679 10.4267 -72.459 -0.749015 1.88033 -3.80371 14.1901 -22.8475 -1.33386 3.26692 61.7105 12.343 -13.6911 -9.28263 6.43866 -3.16389e-007 4.50588e-008 -1.88197e-008 6.57714 -27.0256 -1.79852 -0.556944 47.8052 -3.06159 9.80347 -28.2424 -5.62213 -4.26654e-007 -4.19318e-009 -7.63061e-009 -1.37207 3.81416 -7.58786 -1.37204 3.81419 -7.58786 -2.61417 1.66809 -21.3185 -23.0865 -3.41483 2.09959 -39.44 29.9573 -6.12017 -4.10352 1.92039 -46.3341 16.3425 14.0006 -5.59143 -0 -3.18055e-015 -0 3.18055e-015 -6.36111e-015 -3.18055e-015 21.4133 11.1971 32.8853 50.8136 30.4743 -10.8573 0.798464 -2.04791 37.9963 -14.5179 -4.56279 -11.387 0 0 -6.36111e-015 7.06225e-031 6.36111e-015 -6.36111e-015 18.9055 6.48052 -30.1414 
16.015 85.4323 -3.7034 -6.02026 10.3713 -74.8478 -0.734429 1.87142 -3.68263 15.4362 -20.5899 -0.550816 1.57829 59.0644 5.17923 -11.2489 -10.8442 6.87971 -3.16389e-007 4.50588e-008 -1.88197e-008 6.35917 -27.7694 -0.560791 -0.794709 47.9132 -4.83031 10.003 -26.7283 -5.31981 -4.26654e-007 -4.19318e-009 -7.63061e-009 -1.34752 3.79763 -7.34598 -1.34753 3.79764 -7.34602 -2.74412 1.8046 -21.2072 -22.8598 -3.46066 2.03797 -39.5628 29.4437 -6.04433 -4.07937 1.89385 -45.9766 14.7185 14.8863 -5.58782 -6.36111e-015 -9.54166e-015 -6.36111e-015 -3.18055e-015 -3.18056e-015 -9.54166e-015 21.4277 10.9501 32.6993 52.1776 30.294 -11.9921 0.861602 -2.03666 38.4825 -14.7239 -4.36336 -11.6086 3.18055e-015 6.36111e-015 3.18055e-015 6.36111e-015 6.36111e-015 -0 18.6054 7.40049 -30.0044 
17.3018 85.0994 -3.25998 -5.74106 10.0533 -77.0851 -0.713842 1.91057 -3.55624 15.5863 -19.7204 0.991261 0.799034 59.4205 0.721529 -8.48555 -13.2011 6.53565 -3.16389e-007 4.50588e-008 -1.88197e-008 5.67074 -29.1165 0.15149 -1.01592 48.7703 -6.28027 10.2829 -25.7313 -3.93693 -4.26654e-007 -4.19318e-009 -7.63061e-009 -1.3085 3.86196 -7.09355 -1.30846 3.86197 -7.09365 -2.78489 1.85442 -21.0792 -22.7536 -3.4759 2.05045 -39.9458 28.8144 -5.29199 -4.09741 1.91414 -46.2471 13.2844 15.5127 -5.18842 -1.76556e-031 3.18055e-015 3.18055e-015 0 0 -3.18055e-015 21.4634 10.8617 32.6532 53.253 30.253 -12.9755 0.871705 -2.03653 38.5561 -14.1575 -4.16838 -11.4456 -3.18055e-015 0 -6.36111e-015 -6.36111e-015 0 -3.18055e-015 18.4187 7.29253 -29.602 
18.7091 84.9789 -2.90317 -5.42849 9.76752 -79.1365 -0.827286 1.90669 -3.44355 14.641 -18.774 0.354137 0.378071 57.0644 -1.29169 -7.04052 -11.3233 8.19126 -3.16389e-007 4.50588e-008 -1.88197e-008 4.93637 -30.1195 -0.0128026 -1.05599 48.8085 -6.63034 10.0278 -25.0866 -3.03953 -4.26654e-007 -4.19319e-009 -7.63061e-009 -1.53942 3.85965 -6.86421 -1.53938 3.8576 -6.86435 -2.79724 1.7795 -20.9847 -22.9452 -3.41627 2.03149 -40.2882 28.3352 -4.15155 -4.14254 1.96517 -46.9246 12.234 15.8142 -4.43104 -6.36111e-015 -3.18055e-015 3.18055e-015 -3.18055e-015 -3.18056e-015 -3.18055e-015 21.5378 10.9448 32.5425 54.4163 30.8486 -13.5718 0.77959 -2.05578 37.8453 -13.8905 -3.21429 -11.2957 -6.36111e-015 3.18055e-015 -0 -9.54166e-015 0 -0 17.9812 7.37307 -29.3645 
